<svg width="763" height="524" viewBox="0 0 763 524" fill="none" xmlns="http://www.w3.org/2000/svg">
    <path
        d="M550.325 62.2432C553.155 61.9464 555.767 61.8443 558.599 61.8709C559.454 61.8673 560.309 61.8636 561.191 61.8599C564.027 61.8517 566.864 61.8654 569.7 61.88C571.666 61.8805 573.631 61.88 575.596 61.8784C579.719 61.8785 583.841 61.889 587.964 61.907C593.257 61.9297 598.55 61.9303 603.843 61.9235C607.903 61.9202 611.962 61.9268 616.021 61.9367C617.973 61.9405 619.926 61.9417 621.878 61.9401C624.603 61.9397 627.327 61.9523 630.052 61.9686C630.864 61.9661 631.677 61.9636 632.514 61.9611C638.097 62.0145 638.097 62.0145 640.325 64.2432C640.695 66.151 640.695 66.151 640.866 68.5222C640.935 69.4198 641.004 70.3174 641.076 71.2422C641.142 72.2284 641.208 73.2145 641.277 74.2305C641.392 75.7805 641.392 75.7805 641.509 77.3618C641.762 80.7956 642.001 84.2303 642.239 87.6651C642.413 90.078 642.588 92.4908 642.763 94.9036C643.299 102.349 643.816 109.796 644.325 117.243C644.402 118.359 644.478 119.474 644.557 120.624C645.573 135.512 646.54 150.403 647.495 165.296C648.038 173.755 648.585 182.213 649.133 190.672C649.278 192.914 649.423 195.156 649.567 197.398C650.516 212.088 651.493 226.775 652.5 241.461C656.184 295.197 659.561 348.945 662.713 402.714C663.211 411.197 663.717 419.68 664.223 428.163C664.721 436.501 665.215 444.839 665.704 453.177C665.992 458.088 666.282 462.999 666.577 467.909C666.85 472.446 667.116 476.984 667.378 481.522C667.474 483.18 667.573 484.837 667.674 486.495C667.811 488.75 667.941 491.006 668.068 493.262C668.143 494.522 668.217 495.781 668.293 497.079C668.321 499.778 668.275 501.74 667.325 504.243C665.325 506.243 665.325 506.243 663.383 506.303C662.554 506.209 661.726 506.114 660.872 506.017C659.884 505.907 658.896 505.797 657.878 505.684C656.706 505.538 655.533 505.393 654.325 505.243C653.646 505.162 652.967 505.08 652.267 504.996C647.531 504.428 642.801 503.823 638.072 503.196C636.401 502.977 634.729 502.762 633.057 502.551C630.609 502.242 628.162 501.92 625.716 501.595C624.977 501.504 624.239 501.413 623.477 501.32C618.644 500.657 614.69 499.456 610.325 497.243C609.144 494.881 609.108 493.251 608.968 490.615C608.914 489.645 608.861 488.676 608.806 487.678C608.752 486.618 608.697 485.558 608.642 484.466C608.582 483.363 608.522 482.261 608.46 481.125C608.265 477.519 608.077 473.912 607.888 470.306C607.756 467.844 607.623 465.382 607.49 462.92C607.225 458.003 606.961 453.086 606.698 448.169C606.202 438.9 605.673 429.634 605.138 420.368C605.053 418.896 604.969 417.423 604.884 415.951C604.698 412.715 604.512 409.479 604.325 406.243C600.505 405.186 597.046 405.144 593.075 405.181C591.18 405.194 591.18 405.194 589.247 405.208C588.283 405.22 587.319 405.231 586.325 405.243C585.444 409.896 585.089 414.482 584.908 419.205C584.859 420.367 584.859 420.367 584.809 421.552C584.738 423.225 584.669 424.898 584.601 426.571C584.417 431.052 584.212 435.532 584.011 440.013C583.757 445.705 583.51 451.398 583.281 457.091C583.095 461.703 582.891 466.313 582.675 470.923C582.596 472.678 582.524 474.433 582.458 476.188C582.367 478.64 582.251 481.09 582.131 483.541C582.109 484.265 582.088 484.989 582.066 485.735C581.875 489.12 581.522 490.987 579.434 493.706C576.668 495.722 575.252 495.591 571.872 495.267C570.789 495.174 569.705 495.081 568.589 494.986C567.429 494.865 566.27 494.743 565.075 494.618C562.643 494.394 560.211 494.17 557.778 493.946C556.543 493.826 555.307 493.705 554.034 493.581C550.461 493.256 546.891 493.007 543.31 492.79C542.217 492.719 541.124 492.647 539.998 492.574C537.917 492.439 535.836 492.316 533.754 492.206C532.351 492.104 532.351 492.104 530.919 492.001C529.692 491.926 529.692 491.926 528.441 491.849C526.325 491.243 526.325 491.243 524.554 489.531C523.051 486.732 522.988 485.052 523.071 481.88C523.1 480.711 523.128 479.543 523.157 478.338C523.211 476.973 523.267 475.608 523.325 474.243C523.354 473.507 523.382 472.771 523.412 472.012C523.675 465.357 524.028 458.707 524.388 452.056C524.479 450.345 524.479 450.345 524.572 448.6C526.248 417.399 528.392 386.224 530.501 355.049C532.038 332.333 533.507 309.617 534.763 286.884C535.906 266.194 537.164 245.513 538.482 224.833C538.529 224.089 538.576 223.344 538.625 222.577C539.306 211.883 539.991 201.189 540.677 190.495C541.365 179.758 542.053 169.02 542.738 158.282C542.976 154.544 543.215 150.806 543.455 147.069C544.433 131.828 545.38 116.587 546.204 101.337C546.272 100.103 546.339 98.868 546.409 97.5959C546.722 91.8592 547.026 86.1224 547.312 80.3843C547.418 78.3953 547.525 76.4063 547.632 74.4173C547.693 73.0726 547.693 73.0726 547.756 71.7007C547.802 70.8859 547.847 70.0711 547.894 69.2315C547.93 68.5284 547.965 67.8252 548.001 67.1008C548.325 65.2432 548.325 65.2432 550.325 62.2432ZM594.325 119.243C594.053 124.813 593.787 130.384 593.526 135.955C593.437 137.829 593.347 139.703 593.255 141.578C592.669 153.592 592.253 165.603 591.973 177.627C591.558 195.287 590.884 212.931 590.134 230.579C590.079 231.873 590.024 233.168 589.968 234.501C589.483 245.925 588.992 257.349 588.496 268.772C588.175 276.158 587.859 283.545 587.547 290.932C587.44 293.441 587.332 295.95 587.221 298.458C586.516 314.398 586.174 330.288 586.325 346.243C589.391 347.776 592.593 347.346 595.95 347.306C596.657 347.301 597.363 347.297 598.091 347.292C599.836 347.28 601.581 347.262 603.325 347.243C603.444 337.619 603.122 328.052 602.676 318.441C602.507 314.798 602.346 311.155 602.185 307.512C602.053 304.539 601.92 301.566 601.787 298.594C599.908 256.447 598.488 214.299 597.365 172.125C597.279 168.873 597.191 165.62 597.103 162.368C596.996 158.407 596.894 154.447 596.794 150.486C596.522 140.051 596.068 129.656 595.325 119.243C594.995 119.243 594.665 119.243 594.325 119.243Z"
        fill="#E80000" />
    <path
        d="M299.75 61.0976C300.516 61.0942 301.282 61.0908 302.072 61.0874C304.618 61.0778 307.165 61.0759 309.712 61.0749C311.489 61.0716 313.266 61.0683 315.044 61.0648C318.782 61.0588 322.52 61.0569 326.259 61.0575C331.011 61.0576 335.762 61.0441 340.514 61.0267C344.193 61.0155 347.873 61.0136 351.553 61.0141C353.302 61.013 355.051 61.0086 356.799 61.0008C392.349 60.8571 392.349 60.8571 406.124 73.6855C418.924 86.4603 419.414 103.979 419.472 120.997C419.471 122.355 419.471 123.713 419.47 125.071C419.473 126.531 419.477 127.991 419.481 129.451C419.489 133.385 419.492 137.318 419.492 141.252C419.493 143.717 419.495 146.182 419.498 148.647C419.507 157.264 419.511 165.882 419.51 174.5C419.51 182.503 419.52 190.507 419.536 198.51C419.549 205.408 419.555 212.307 419.554 219.206C419.554 223.314 419.557 227.423 419.567 231.531C419.577 235.396 419.577 239.261 419.57 243.127C419.569 244.536 419.571 245.945 419.577 247.354C419.623 258.626 419.344 269.513 413.95 279.618C413.072 281.3 413.072 281.3 412.177 283.016C405.934 293.896 398.413 298.959 386.325 302.243C376.856 304.275 367.263 304.588 357.613 304.902C356.241 304.949 356.241 304.949 354.841 304.997C354.019 305.021 353.197 305.045 352.35 305.069C350.257 305.123 350.257 305.123 348.325 306.243C348.323 307.151 348.32 308.06 348.318 308.996C348.259 331.087 348.183 353.178 348.089 375.269C348.044 385.952 348.005 396.635 347.979 407.319C347.956 416.628 347.922 425.938 347.876 435.248C347.852 440.179 347.834 445.109 347.828 450.04C347.821 454.679 347.802 459.318 347.771 463.957C347.762 465.662 347.758 467.366 347.76 469.071C347.762 471.395 347.745 473.718 347.724 476.042C347.717 477.995 347.717 477.995 347.71 479.986C347.304 483.422 346.763 484.837 344.325 487.243C342.242 487.789 342.242 487.789 339.802 487.852C338.876 487.885 337.951 487.917 336.997 487.95C335.992 487.964 334.986 487.978 333.95 487.993C332.389 488.035 332.389 488.035 330.797 488.078C327.306 488.161 323.817 488.207 320.325 488.243C319.026 488.258 317.726 488.273 316.388 488.289C312.409 488.331 308.429 488.353 304.45 488.368C303.179 488.373 301.907 488.377 300.597 488.382C299.417 488.38 298.237 488.378 297.02 488.376C295.969 488.375 294.917 488.373 293.833 488.372C291.325 488.243 291.325 488.243 289.325 487.243C288.162 483.754 288.199 481.039 288.196 477.357C288.195 476.649 288.193 475.941 288.191 475.211C288.186 472.821 288.189 470.431 288.191 468.04C288.19 466.316 288.187 464.592 288.185 462.868C288.178 458.117 288.179 453.366 288.18 448.614C288.18 443.496 288.174 438.377 288.17 433.258C288.161 423.225 288.159 413.191 288.158 403.158C288.158 395.006 288.156 386.854 288.152 378.702C288.144 355.609 288.139 332.516 288.14 309.423C288.14 308.177 288.14 306.931 288.14 305.647C288.14 304.4 288.14 303.153 288.14 301.868C288.14 281.643 288.131 261.419 288.117 241.194C288.102 220.447 288.095 199.7 288.096 178.953C288.097 167.297 288.094 155.642 288.083 143.986C288.074 134.064 288.072 124.142 288.079 114.219C288.082 109.154 288.082 104.088 288.073 99.0222C288.065 94.3892 288.067 89.7564 288.076 85.1234C288.077 83.4431 288.075 81.7627 288.07 80.0824C288.063 77.8064 288.068 75.5307 288.076 73.2547C288.076 71.9881 288.076 70.7214 288.076 69.4164C288.312 66.405 288.637 64.7144 290.325 62.2428C293.338 60.7366 296.445 61.0955 299.75 61.0976ZM347.325 114.243C347.229 116.014 347.203 117.79 347.205 119.564C347.203 120.718 347.202 121.872 347.201 123.061C347.204 124.339 347.208 125.616 347.212 126.933C347.212 128.282 347.212 129.632 347.211 130.982C347.211 134.658 347.217 138.333 347.224 142.008C347.23 145.846 347.231 149.683 347.232 153.52C347.235 160.791 347.243 168.061 347.253 175.332C347.264 183.608 347.27 191.883 347.275 200.159C347.285 217.187 347.303 234.215 347.325 251.243C349.428 251.351 351.533 251.428 353.638 251.493C354.809 251.539 355.981 251.586 357.188 251.633C360.349 251.54 360.349 251.54 362.22 249.564C363.538 246.795 363.697 244.911 363.693 241.847C363.698 240.752 363.704 239.657 363.709 238.529C363.7 237.332 363.691 236.135 363.682 234.903C363.684 233.639 363.686 232.375 363.688 231.073C363.693 227.61 363.679 224.148 363.662 220.685C363.647 217.062 363.648 213.438 363.648 209.815C363.644 203.731 363.629 197.648 363.606 191.564C363.577 183.753 363.567 175.942 363.563 168.132C363.559 161.418 363.546 154.704 363.532 147.99C363.528 145.831 363.525 143.672 363.523 141.513C363.517 137.493 363.502 133.473 363.486 129.454C363.485 128.255 363.484 127.056 363.483 125.822C363.474 124.183 363.474 124.183 363.466 122.512C363.463 121.561 363.46 120.611 363.457 119.631C363.422 117.095 363.422 117.095 362.325 114.243C359.58 112.87 357.322 113.111 354.263 113.118C353.179 113.115 352.094 113.113 350.977 113.11C348.403 112.942 348.403 112.942 347.325 114.243Z"
        fill="#E80000" />
    <path
        d="M438.513 60.8379C439.348 60.831 440.182 60.8242 441.042 60.8171C443.803 60.7988 446.564 60.8027 449.326 60.8083C451.242 60.8038 453.159 60.7985 455.076 60.7925C459.094 60.7835 463.112 60.786 467.13 60.7959C472.286 60.8074 477.44 60.7872 482.596 60.758C486.554 60.7397 490.512 60.7399 494.47 60.7456C496.371 60.7458 498.272 60.7397 500.173 60.7273C502.829 60.7125 505.483 60.723 508.138 60.7402C508.927 60.7306 509.715 60.7209 510.528 60.7109C515.796 60.7826 515.796 60.7826 518.313 62.9668C519.462 65.5486 519.706 67.324 519.714 70.1465C519.723 71.1175 519.733 72.0885 519.742 73.089C519.736 74.1308 519.73 75.1725 519.724 76.2458C519.727 77.3207 519.73 78.3955 519.733 79.5029C519.735 81.7733 519.729 84.0436 519.717 86.314C519.701 89.7949 519.717 93.2747 519.736 96.7556C519.734 98.9607 519.73 101.166 519.724 103.371C519.73 104.415 519.736 105.458 519.742 106.534C519.728 107.986 519.728 107.986 519.714 109.467C519.711 110.319 519.709 111.17 519.707 112.048C519.326 114.242 519.326 114.242 516.326 117.242C501.971 117.737 501.971 117.737 487.326 118.242C487.326 158.172 487.326 198.102 487.326 239.242C494.586 239.572 501.846 239.902 509.326 240.242C511.636 240.902 513.946 241.562 516.326 242.242C516.997 256.476 517.567 270.681 517.076 284.929C517.049 285.943 517.023 286.957 516.996 288.002C516.955 288.93 516.914 289.859 516.872 290.816C516.824 292.032 516.824 292.032 516.774 293.272C516.326 295.242 516.326 295.242 513.326 297.242C504.746 297.242 496.166 297.242 487.326 297.242C487.326 341.792 487.326 386.342 487.326 432.242C496.566 432.902 505.806 433.562 515.326 434.242C519.919 438.835 518.485 448.541 518.494 454.73C518.499 456.029 518.499 456.029 518.504 457.353C518.509 459.166 518.511 460.978 518.511 462.791C518.513 465.565 518.531 468.338 518.55 471.111C518.553 472.88 518.555 474.649 518.556 476.418C518.563 477.244 518.57 478.07 518.578 478.921C518.562 482.951 518.296 485.738 516.326 489.242C498.782 489.379 481.281 489.073 463.749 488.442C459.812 488.302 455.874 488.171 451.937 488.041C449.422 487.953 446.907 487.866 444.392 487.777C443.22 487.739 442.049 487.7 440.842 487.66C439.226 487.6 439.226 487.6 437.578 487.539C436.633 487.506 435.687 487.472 434.713 487.438C432.326 487.242 432.326 487.242 429.326 486.242C426.837 482.792 427.074 479.371 427.071 475.23C427.068 474.521 427.065 473.811 427.061 473.08C427.053 470.691 427.059 468.302 427.065 465.912C427.062 464.187 427.058 462.461 427.053 460.736C427.043 455.985 427.045 451.234 427.05 446.483C427.052 441.363 427.043 436.243 427.035 431.123C427.023 421.089 427.021 411.056 427.023 401.022C427.025 392.87 427.023 384.719 427.019 376.567C427.018 375.408 427.018 374.25 427.017 373.056C427.016 370.702 427.015 368.349 427.014 365.995C427.003 343.909 427.005 321.823 427.011 299.737C427.016 279.512 427.005 259.287 426.986 239.062C426.967 218.314 426.958 197.566 426.962 176.817C426.964 165.161 426.961 153.505 426.947 141.849C426.935 131.928 426.934 122.007 426.946 112.085C426.952 107.02 426.953 101.954 426.941 96.8886C426.93 92.257 426.933 87.6255 426.947 82.9938C426.95 81.3129 426.948 79.6319 426.94 77.951C426.93 75.6764 426.938 73.4026 426.951 71.128C426.951 69.8615 426.951 68.595 426.951 67.2902C427.326 64.2419 427.326 64.2419 428.624 62.3358C431.614 60.4136 435.069 60.8182 438.513 60.8379Z"
        fill="#E80000" />
    <path
        d="M681.478 62.0992C682.552 62.0928 683.627 62.0864 684.734 62.0798C685.898 62.0787 687.063 62.0776 688.263 62.0765C689.454 62.0731 690.645 62.0698 691.872 62.0664C694.394 62.0613 696.916 62.059 699.438 62.0591C703.309 62.0569 707.18 62.0388 711.052 62.0198C713.497 62.0169 715.943 62.0149 718.388 62.014C719.552 62.0068 720.717 61.9996 721.917 61.9922C723.529 61.9968 723.529 61.9968 725.173 62.0015C726.122 62.0001 727.071 61.9987 728.048 61.9972C730.325 62.2444 730.325 62.2444 732.325 64.2444C732.577 67.0169 732.577 67.0169 732.579 70.6382C732.582 71.3051 732.585 71.972 732.588 72.6592C732.596 74.916 732.59 77.1725 732.584 79.4292C732.587 81.0547 732.59 82.6802 732.595 84.3057C732.605 88.7895 732.602 93.2733 732.598 97.7572C732.596 102.586 732.605 107.415 732.612 112.244C732.625 120.617 732.63 128.989 732.63 137.362C732.632 149.47 732.647 161.577 732.666 173.685C732.697 193.33 732.721 212.975 732.739 232.62C732.74 233.797 732.741 234.974 732.742 236.186C732.754 249.317 732.764 262.449 732.772 275.58C732.775 280.343 732.779 285.106 732.782 289.868C732.782 291.044 732.783 292.219 732.784 293.43C732.797 312.999 732.822 332.569 732.855 352.139C732.876 364.221 732.886 376.304 732.883 388.387C732.882 396.66 732.892 404.934 732.91 413.207C732.92 417.987 732.925 422.767 732.917 427.547C732.91 431.917 732.917 436.286 732.934 440.656C732.938 442.242 732.937 443.829 732.93 445.416C732.922 447.561 732.932 449.705 732.946 451.851C732.947 453.046 732.948 454.241 732.949 455.472C733.073 456.387 733.197 457.302 733.325 458.244C736.345 460.258 737.801 460.662 741.29 461.209C742.255 461.37 743.22 461.53 744.214 461.696C746.242 462.019 748.271 462.339 750.3 462.657C751.266 462.818 752.232 462.98 753.228 463.147C754.109 463.286 754.991 463.425 755.899 463.568C758.731 464.358 760.194 465.218 762.325 467.244C762.82 469.642 762.82 469.642 762.811 472.51C762.82 474.122 762.82 474.122 762.83 475.766C762.815 476.926 762.801 478.085 762.786 479.28C762.785 480.469 762.784 481.659 762.784 482.884C762.777 485.4 762.762 487.916 762.737 490.432C762.7 494.295 762.696 498.157 762.696 502.02C762.687 504.461 762.675 506.901 762.661 509.342C762.659 510.504 762.657 511.665 762.655 512.862C762.642 513.933 762.629 515.004 762.616 516.108C762.604 517.527 762.604 517.527 762.593 518.974C762.325 521.244 762.325 521.244 760.325 523.244C754.806 522.827 749.437 521.737 744.025 520.608C742.407 520.277 740.789 519.947 739.172 519.616C738.33 519.443 737.489 519.271 736.621 519.092C725.112 516.73 713.607 514.401 702.013 512.487C701.203 512.352 700.394 512.218 699.559 512.08C695.711 511.446 691.861 510.83 688.006 510.236C686.627 510.014 685.247 509.791 683.868 509.569C682.672 509.384 681.476 509.199 680.244 509.009C677.071 508.178 676.179 507.881 674.325 505.244C674.034 502.737 673.928 500.48 673.956 497.972C673.953 497.223 673.949 496.473 673.946 495.701C673.938 493.168 673.951 490.636 673.965 488.104C673.963 486.278 673.961 484.452 673.957 482.626C673.95 477.594 673.962 472.561 673.977 467.528C673.99 462.107 673.986 456.686 673.983 451.264C673.982 441.866 673.991 432.469 674.008 423.071C674.033 409.483 674.04 395.895 674.044 382.307C674.051 360.263 674.071 338.219 674.099 316.175C674.127 294.758 674.148 273.34 674.161 251.922C674.161 250.603 674.162 249.283 674.163 247.924C674.167 241.305 674.171 234.686 674.174 228.067C674.206 173.126 674.258 118.185 674.325 63.2444C676.861 61.9765 678.639 62.1106 681.478 62.0992Z"
        fill="#E80000" />
    <path
        d="M31.0495 0.0983453C32.0084 0.0919655 32.9672 0.0855856 33.9551 0.0790124C34.9925 0.0778996 36.03 0.0767868 37.0988 0.0756402C38.1735 0.0723118 39.2483 0.0689834 40.3556 0.0655542C42.637 0.0604854 44.9184 0.0581458 47.1999 0.0583063C50.652 0.0561394 54.1038 0.0380376 57.5558 0.0189996C88.7437 -0.0635242 88.7437 -0.0635242 97.3254 7.24361C103.395 13.3137 104.662 20.4282 104.768 28.6692C104.765 29.7121 104.762 30.755 104.759 31.8295C104.764 32.9265 104.769 34.0235 104.775 35.1537C104.781 37.4649 104.78 39.7761 104.771 42.0874C104.763 45.601 104.792 49.113 104.823 52.6264C104.825 54.8816 104.824 57.1368 104.821 59.392C104.833 60.4309 104.844 61.4698 104.856 62.5401C104.782 70.3748 103.353 77.4191 98.3957 83.6811C88.8156 91.376 78.6333 91.2749 66.7629 91.8061C65.3929 91.8709 65.3929 91.8709 63.9953 91.937C61.7721 92.0417 59.5488 92.1439 57.3254 92.2436C57.3056 92.9602 57.2857 93.6767 57.2653 94.415C57.1703 97.6499 57.0605 100.884 56.9504 104.119C56.9194 105.247 56.8885 106.374 56.8566 107.537C56.818 108.613 56.7793 109.689 56.7394 110.798C56.708 111.793 56.6766 112.788 56.6442 113.813C56.3254 116.244 56.3254 116.244 54.3254 118.244C50.0495 118.642 45.7593 118.573 41.467 118.559C39.3333 118.556 37.2011 118.58 35.0676 118.605C33.716 118.607 32.3644 118.608 31.0129 118.607C29.7792 118.61 28.5456 118.613 27.2746 118.616C25.8147 118.432 25.8147 118.432 24.3254 118.244C22.2025 115.059 22.0757 114.289 22.0781 110.644C22.0739 109.701 22.0698 108.757 22.0654 107.785C22.071 106.752 22.0767 105.718 22.0825 104.654C22.0806 103.564 22.0787 102.474 22.0767 101.352C22.073 97.7413 22.0837 94.1312 22.0949 90.521C22.0961 88.019 22.0966 85.517 22.0963 83.015C22.0979 77.7685 22.1059 72.5221 22.1196 67.2756C22.1353 61.2061 22.1406 55.1366 22.1398 49.0671C22.1392 43.2317 22.1444 37.3963 22.1526 31.5609C22.1558 29.0757 22.1578 26.5905 22.1585 24.1053C22.1607 20.6383 22.1694 17.1713 22.1801 13.7043C22.1797 12.6689 22.1792 11.6335 22.1787 10.5668C22.183 9.62599 22.1873 8.68519 22.1917 7.71588C22.1942 6.4856 22.1942 6.4856 22.1967 5.23047C22.3254 3.24361 22.3254 3.24361 23.3254 1.24361C26.2107 0.281838 28.0503 0.111917 31.0495 0.0983453ZM56.3254 32.2436C56.2256 34.1465 56.1946 36.053 56.1926 37.9585C56.1913 39.1193 56.19 40.2801 56.1887 41.476C56.1925 42.6987 56.1964 43.9214 56.2004 45.1811C56.1965 46.3999 56.1926 47.6187 56.1887 48.8745C56.1899 50.0366 56.1912 51.1986 56.1926 52.396C56.1937 53.4684 56.1948 54.5408 56.196 55.6457C56.15 58.2281 56.15 58.2281 57.3254 60.2436C59.1167 60.2975 60.9085 60.3364 62.7004 60.3686C63.6981 60.3918 64.6958 60.415 65.7238 60.4389C68.488 60.5158 68.488 60.5158 70.3254 58.2436C70.7819 54.2831 70.6494 50.2899 70.6379 46.3061C70.654 45.1956 70.6701 44.0851 70.6867 42.9409C70.6874 41.8768 70.688 40.8126 70.6887 39.7163C70.6916 38.7392 70.6946 37.7622 70.6977 36.7556C70.5241 34.2061 70.5241 34.2061 68.9555 32.4221C66.6623 30.7643 64.997 30.9121 62.2004 30.9936C61.3109 31.0091 60.4215 31.0245 59.5051 31.0405C57.3487 31.0075 57.3487 31.0075 56.3254 32.2436Z"
        fill="#F4F4F4" />
    <path
        d="M194.762 0.055601C195.953 0.0652689 195.953 0.0652689 197.168 0.0751322C203.916 0.162045 210.608 0.578543 217.325 1.2431C219.727 8.69793 221.469 16.1937 223.012 23.8681C223.237 24.9677 223.462 26.0672 223.694 27.2001C224.242 29.8803 224.785 32.5613 225.325 35.2431C225.496 34.3197 225.668 33.3964 225.844 32.445C226.483 29.0167 227.129 25.5896 227.779 22.1633C228.058 20.6807 228.336 19.1976 228.611 17.714C229.006 15.5805 229.411 13.4488 229.817 11.3173C230.058 10.0343 230.299 8.75128 230.547 7.42938C231.325 4.2431 231.325 4.2431 233.325 1.2431C236.442 0.77899 236.442 0.77899 240.415 0.66107C241.115 0.638375 241.815 0.615681 242.537 0.592298C244.019 0.547692 245.501 0.51034 246.983 0.479673C249.251 0.43085 251.517 0.355363 253.784 0.276304C264.911 -0.0329558 264.911 -0.0329559 268.325 2.2431C267.729 7.73051 266.365 12.525 264.489 17.704C264.209 18.494 263.929 19.284 263.641 20.098C262.75 22.6069 261.85 25.1126 260.95 27.6181C260.059 30.1172 259.17 32.6169 258.281 35.1168C257.729 36.6657 257.176 38.2141 256.621 39.7617C256.106 41.2 255.596 42.64 255.091 44.0817C254.566 45.5628 254.023 47.0377 253.465 48.5066C250.426 56.8241 250.856 63.2062 253.993 71.4423C254.27 72.1992 254.546 72.9561 254.831 73.736C255.713 76.1388 256.612 78.5346 257.512 80.9306C258.098 82.5181 258.682 84.106 259.264 85.6943C262.481 94.4337 262.481 94.4337 265.866 103.109C266.323 104.253 266.78 105.397 267.251 106.575C267.855 108.05 267.855 108.05 268.471 109.555C269.344 112.303 269.574 114.38 269.325 117.243C268.325 118.243 268.325 118.243 264.999 118.357C263.523 118.356 262.047 118.351 260.571 118.341C259.796 118.339 259.02 118.338 258.221 118.336C255.735 118.331 253.249 118.318 250.762 118.306C249.081 118.301 247.399 118.296 245.718 118.292C241.587 118.281 237.456 118.264 233.325 118.243C231.341 114.784 230.603 111.402 229.817 107.509C229.622 106.552 229.622 106.552 229.422 105.575C229.009 103.549 228.605 101.521 228.2 99.4931C227.921 98.1141 227.641 96.7352 227.36 95.3564C226.677 91.9863 225.999 88.6152 225.325 85.2431C223.927 89.2171 222.875 93.0872 222.106 97.2275C221.896 98.327 221.686 99.4266 221.47 100.56C221.037 102.864 220.607 105.168 220.18 107.474C219.97 108.568 219.76 109.662 219.544 110.79C219.357 111.789 219.171 112.787 218.979 113.816C218.325 116.243 218.325 116.243 216.325 118.243C213.816 118.418 211.419 118.475 208.911 118.438C208.181 118.436 207.452 118.433 206.7 118.43C204.366 118.419 202.033 118.394 199.7 118.368C198.119 118.358 196.539 118.349 194.958 118.341C191.08 118.319 187.203 118.284 183.325 118.243C181.959 116.027 181.24 114.811 181.634 112.19C181.896 111.462 182.157 110.734 182.427 109.985C182.718 109.153 183.009 108.321 183.308 107.465C183.802 106.127 183.802 106.127 184.305 104.763C184.634 103.835 184.963 102.908 185.301 101.952C186.358 98.9814 187.435 96.0186 188.512 93.0556C189.22 91.0789 189.927 89.1017 190.632 87.124C191.938 83.4623 193.253 79.8043 194.576 76.1486C194.867 75.3254 195.157 74.5023 195.457 73.6541C196.028 72.0682 196.626 70.4919 197.254 68.9275C200.893 59.3973 198.106 51.7264 194.727 42.4775C194.374 41.481 194.02 40.4846 193.655 39.458C192.534 36.2997 191.399 33.146 190.262 29.9931C189.123 26.8257 187.986 23.6573 186.859 20.4853C186.16 18.5182 185.453 16.5537 184.739 14.5922C184.422 13.7006 184.105 12.8091 183.778 11.8906C183.497 11.1116 183.215 10.3327 182.926 9.53015C182.266 7.01846 182.219 4.82893 182.325 2.2431C186.201 -0.358219 190.28 -0.0191296 194.762 0.055601Z"
        fill="#F4F4F4" />
    <path
        d="M113.325 1.24275C115.868 0.86853 115.868 0.86853 119.12 0.870438C120.335 0.864209 121.549 0.85798 122.801 0.851562C124.118 0.860772 125.436 0.869982 126.794 0.879471C128.154 0.879989 129.514 0.879472 130.874 0.87796C133.725 0.87805 136.576 0.888489 139.428 0.90657C143.087 0.929258 146.745 0.929802 150.404 0.923053C153.213 0.919714 156.021 0.92634 158.83 0.936182C160.836 0.941914 162.843 0.940597 164.849 0.939209C166.064 0.948741 167.279 0.958273 168.53 0.968094C169.603 0.972701 170.676 0.977309 171.782 0.982056C174.325 1.24275 174.325 1.24275 176.325 3.24275C176.785 7.72533 176.649 12.2393 176.637 16.7428C176.654 18.0047 176.67 19.2667 176.686 20.567C176.687 21.7697 176.688 22.9724 176.688 24.2115C176.691 25.3195 176.694 26.4274 176.697 27.5689C176.574 28.4513 176.452 29.3337 176.325 30.2428C172.738 32.6339 171.161 32.4766 166.907 32.4381C165.027 32.4284 165.027 32.4284 163.108 32.4185C161.143 32.3934 161.143 32.3934 159.137 32.3678C157.802 32.3577 156.467 32.3486 155.132 32.3404C151.863 32.3168 148.594 32.2839 145.325 32.2428C145.82 37.6878 145.82 37.6878 146.325 43.2428C148.781 43.3336 148.781 43.3336 151.286 43.4263C153.424 43.5107 155.562 43.5954 157.7 43.6803C159.32 43.7392 159.32 43.7392 160.973 43.7994C162.005 43.8413 163.036 43.8832 164.098 43.9263C165.051 43.963 166.005 43.9997 166.987 44.0374C169.325 44.2428 169.325 44.2428 171.325 45.2428C172.304 48.7154 172.405 51.8874 172.239 55.4732C172.195 56.4407 172.151 57.4081 172.106 58.4049C172.055 59.4032 172.003 60.4016 171.95 61.4303C171.906 62.4402 171.862 63.4502 171.817 64.4908C171.456 71.9797 171.456 71.9797 170.325 74.2428C162.075 74.2428 153.825 74.2428 145.325 74.2428C145.325 78.8628 145.325 83.4828 145.325 88.2428C147.479 88.2312 149.633 88.2195 151.852 88.2076C153.931 88.1998 156.009 88.1937 158.087 88.1878C159.536 88.1828 160.984 88.1759 162.432 88.1673C164.51 88.1552 166.587 88.1495 168.665 88.1451C169.916 88.1399 171.168 88.1346 172.458 88.1292C175.325 88.2428 175.325 88.2428 176.325 89.2428C176.413 91.3154 176.432 93.391 176.423 95.4654C176.418 97.3555 176.418 97.3555 176.413 99.2838C176.404 100.624 176.396 101.965 176.387 103.305C176.382 104.65 176.378 105.994 176.374 107.338C176.362 110.64 176.345 113.941 176.325 117.243C173.637 118.587 171.54 118.385 168.53 118.404C167.315 118.413 166.101 118.423 164.849 118.433C162.873 118.439 162.873 118.439 160.856 118.446C159.496 118.452 158.136 118.457 156.776 118.463C153.925 118.474 151.073 118.48 148.222 118.483C144.563 118.488 140.905 118.513 137.246 118.541C134.437 118.56 131.629 118.565 128.82 118.566C126.813 118.571 124.807 118.589 122.801 118.608C121.586 118.605 120.371 118.602 119.12 118.599C118.047 118.603 116.974 118.606 115.868 118.61C115.029 118.489 114.19 118.368 113.325 118.243C111.211 115.071 111.074 114.314 111.071 110.688C111.065 109.754 111.06 108.821 111.054 107.859C111.058 106.836 111.062 105.814 111.066 104.76C111.063 103.682 111.059 102.604 111.056 101.493C111.047 97.9198 111.053 94.347 111.059 90.774C111.058 88.2968 111.056 85.8197 111.054 83.3425C111.05 77.4812 111.057 71.6201 111.068 65.7589C111.075 61.0821 111.073 56.4054 111.064 51.7286C111.053 45.2866 111.051 38.8447 111.057 32.4028C111.059 29.9435 111.057 27.4842 111.052 25.025C111.047 21.5916 111.055 18.1585 111.066 14.7252C111.06 13.1915 111.06 13.1915 111.054 11.6269C111.06 10.6931 111.065 9.75937 111.071 8.79732C111.072 7.98543 111.073 7.17354 111.073 6.33704C111.325 4.24275 111.325 4.24275 113.325 1.24275Z"
        fill="#F4F4F4" />
    <path
        d="M299.75 61.0987C300.516 61.0953 301.282 61.0919 302.072 61.0885C304.618 61.0789 307.165 61.077 309.712 61.0759C311.489 61.0727 313.266 61.0694 315.044 61.0659C318.782 61.0599 322.52 61.058 326.259 61.0586C331.011 61.0587 335.762 61.0452 340.514 61.0278C344.193 61.0166 347.873 61.0147 351.553 61.0152C353.302 61.0141 355.051 61.0097 356.799 61.0019C384.792 60.8887 384.792 60.8887 391.325 65.2439C389.659 65.2715 387.992 65.2906 386.325 65.3064C385.397 65.318 384.469 65.3296 383.513 65.3416C380.325 65.2439 380.325 65.2439 376.647 64.7506C372.415 64.2078 368.245 64.0723 363.981 64.0386C363.19 64.0287 362.399 64.0188 361.584 64.0086C358.998 63.9773 356.411 63.9523 353.825 63.9275C352.021 63.9069 350.216 63.8859 348.411 63.8645C343.683 63.8096 338.955 63.7601 334.227 63.7117C329.394 63.6613 324.561 63.6057 319.727 63.5506C310.26 63.4433 300.793 63.3418 291.325 63.2439C291.302 115.271 291.285 167.299 291.274 219.326C291.273 225.469 291.272 231.612 291.27 237.756C291.27 238.979 291.27 240.202 291.269 241.462C291.265 261.261 291.257 281.059 291.248 300.858C291.239 321.176 291.233 341.494 291.231 361.811C291.23 374.347 291.225 386.882 291.217 399.418C291.212 408.016 291.21 416.614 291.212 425.212C291.212 430.171 291.211 435.13 291.206 440.09C291.201 444.635 291.201 449.18 291.204 453.725C291.205 455.365 291.203 457.004 291.2 458.644C291.196 460.884 291.198 463.124 291.202 465.364C291.202 466.605 291.201 467.846 291.201 469.125C291.363 474.508 291.878 479.876 292.325 485.244C309.485 485.574 326.645 485.904 344.325 486.244C344.325 486.574 344.325 486.904 344.325 487.244C331.033 487.944 317.76 488.349 304.45 488.369C303.179 488.373 301.908 488.378 300.598 488.383C299.417 488.381 298.237 488.379 297.02 488.377C295.969 488.376 294.917 488.374 293.833 488.373C291.325 488.244 291.325 488.244 289.325 487.244C288.162 483.756 288.199 481.041 288.196 477.358C288.195 476.65 288.193 475.942 288.191 475.212C288.186 472.822 288.189 470.432 288.191 468.041C288.19 466.317 288.187 464.593 288.185 462.869C288.178 458.118 288.179 453.367 288.18 448.615C288.18 443.497 288.174 438.378 288.17 433.259C288.161 423.226 288.159 413.193 288.158 403.159C288.158 395.007 288.156 386.855 288.152 378.703C288.144 355.61 288.139 332.517 288.14 309.424C288.14 308.178 288.14 306.932 288.14 305.648C288.14 304.401 288.14 303.154 288.14 301.869C288.14 281.644 288.131 261.42 288.117 241.195C288.102 220.448 288.095 199.701 288.096 178.954C288.097 167.298 288.094 155.643 288.083 143.987C288.074 134.065 288.072 124.143 288.079 114.22C288.082 109.155 288.082 104.089 288.073 99.0233C288.065 94.3903 288.067 89.7574 288.076 85.1245C288.077 83.4442 288.075 81.7638 288.07 80.0835C288.063 77.8075 288.068 75.5318 288.076 73.2558C288.076 71.9891 288.076 70.7225 288.076 69.4175C288.312 66.4061 288.637 64.7155 290.325 62.2439C293.338 60.7377 296.445 61.0966 299.75 61.0987Z"
        fill="#E80000" />
    <path
        d="M438.513 60.8379C439.348 60.831 440.182 60.8242 441.042 60.8171C443.803 60.7988 446.564 60.8027 449.326 60.8083C451.242 60.8038 453.159 60.7985 455.076 60.7925C459.094 60.7835 463.112 60.786 467.13 60.7959C472.286 60.8074 477.44 60.7872 482.596 60.758C486.554 60.7397 490.512 60.7399 494.47 60.7456C496.371 60.7458 498.272 60.7397 500.173 60.7273C502.829 60.7125 505.483 60.723 508.138 60.7402C508.927 60.7306 509.715 60.7209 510.528 60.7109C515.795 60.7825 515.795 60.7825 518.316 62.9638C519.472 65.5717 519.688 67.3451 519.666 70.1941C519.666 71.1748 519.666 72.1555 519.666 73.166C519.65 74.2171 519.635 75.2683 519.619 76.3513C519.614 77.4333 519.61 78.5152 519.606 79.6299C519.589 83.0842 519.551 86.5379 519.513 89.9919C519.498 92.3344 519.484 94.6768 519.472 97.0193C519.439 102.76 519.389 108.501 519.326 114.242C518.666 114.242 518.006 114.242 517.326 114.242C517.326 98.0719 517.326 81.9019 517.326 65.2419C512.517 64.4405 508.143 64.0991 503.317 64.1125C502.537 64.1108 501.757 64.109 500.954 64.1072C498.394 64.1029 495.835 64.1057 493.275 64.1091C491.492 64.1085 489.71 64.1075 487.927 64.1062C484.201 64.1048 480.474 64.1069 476.748 64.1116C471.962 64.1173 467.175 64.114 462.389 64.108C458.713 64.1044 455.037 64.1055 451.361 64.1081C449.595 64.1088 447.83 64.108 446.064 64.1056C443.605 64.1031 441.146 64.107 438.688 64.1125C437.585 64.1095 437.585 64.1095 436.46 64.1064C433.108 63.8255 433.108 63.8255 430.326 65.2419C430.222 67.4571 430.192 69.6755 430.187 71.8931C430.184 72.5999 430.181 73.3068 430.178 74.0352C430.17 76.4338 430.169 78.8324 430.167 81.2311C430.163 82.9561 430.158 84.6812 430.152 86.4062C430.139 91.1698 430.131 95.9334 430.125 100.697C430.117 105.825 430.103 110.953 430.09 116.082C430.069 124.974 430.05 133.867 430.035 142.76C430.012 155.617 429.984 168.475 429.954 181.332C429.907 202.19 429.863 223.048 429.823 243.906C429.784 264.174 429.742 284.441 429.698 304.708C429.695 305.956 429.692 307.205 429.69 308.491C429.676 314.753 429.662 321.015 429.649 327.277C429.535 379.265 429.428 431.254 429.326 483.242C429.986 483.572 430.646 483.902 431.326 484.242C431.326 484.902 431.326 485.562 431.326 486.242C430.666 486.242 430.006 486.242 429.326 486.242C427.023 482.588 427.074 479.49 427.071 475.23C427.068 474.521 427.065 473.811 427.061 473.08C427.053 470.691 427.059 468.302 427.065 465.912C427.062 464.187 427.058 462.461 427.053 460.736C427.043 455.985 427.045 451.234 427.05 446.483C427.052 441.363 427.043 436.243 427.035 431.123C427.023 421.089 427.021 411.056 427.023 401.022C427.025 392.87 427.023 384.719 427.019 376.567C427.018 375.408 427.018 374.25 427.017 373.056C427.016 370.702 427.015 368.349 427.014 365.995C427.003 343.909 427.005 321.823 427.011 299.737C427.016 279.512 427.005 259.287 426.986 239.062C426.967 218.314 426.958 197.566 426.962 176.817C426.964 165.161 426.961 153.505 426.947 141.849C426.935 131.928 426.934 122.007 426.946 112.085C426.952 107.02 426.953 101.954 426.941 96.8886C426.93 92.257 426.933 87.6255 426.947 82.9938C426.95 81.3129 426.948 79.6319 426.94 77.951C426.93 75.6764 426.938 73.4026 426.951 71.128C426.951 69.8615 426.951 68.595 426.951 67.2902C427.326 64.2419 427.326 64.2419 428.624 62.3358C431.614 60.4136 435.069 60.8182 438.513 60.8379Z"
        fill="#E80000" />
    <path
        d="M681.509 62.1302C682.59 62.1303 683.671 62.1304 684.785 62.1305C686.541 62.1382 686.541 62.1382 688.333 62.1461C689.529 62.1475 690.725 62.1489 691.957 62.1504C695.788 62.156 699.619 62.1686 703.45 62.1813C706.043 62.1863 708.635 62.1908 711.228 62.1949C717.593 62.206 723.959 62.2227 730.325 62.2438C729.995 63.2338 729.665 64.2238 729.325 65.2438C712.165 65.2438 695.005 65.2438 677.325 65.2438C676.995 210.444 676.665 355.644 676.325 505.244C675.665 505.244 675.005 505.244 674.325 505.244C674.325 359.384 674.325 213.524 674.325 63.2438C676.875 61.9691 678.656 62.1236 681.509 62.1302Z"
        fill="#E80000" />
    <path
        d="M289.325 284.242C289.655 284.242 289.985 284.242 290.325 284.242C290.329 285.205 290.334 286.168 290.338 287.16C290.441 310.623 290.55 334.086 290.665 357.548C290.72 368.894 290.773 380.241 290.823 391.587C290.866 401.48 290.912 411.373 290.962 421.266C290.989 426.501 291.013 431.736 291.034 436.971C291.054 441.906 291.078 446.84 291.106 451.775C291.115 453.579 291.123 455.384 291.129 457.188C291.137 459.667 291.151 462.145 291.167 464.624C291.168 465.324 291.169 466.025 291.17 466.746C291.22 472.988 291.802 478.959 292.325 485.242C309.485 485.572 326.645 485.902 344.325 486.242C344.325 486.572 344.325 486.902 344.325 487.242C331.034 487.942 317.76 488.347 304.45 488.367C303.179 488.372 301.908 488.376 300.598 488.381C299.417 488.379 298.237 488.377 297.021 488.375C295.969 488.374 294.917 488.373 293.833 488.372C291.325 488.242 291.325 488.242 289.325 487.242C289.325 420.252 289.325 353.262 289.325 284.242Z"
        fill="#E80000" />
    <path
        d="M531.325 345.242C531.655 345.242 531.985 345.242 532.325 345.242C532.385 349.034 532.419 352.825 532.45 356.617C532.467 357.659 532.483 358.7 532.501 359.773C532.539 366.187 532.138 372.397 531.348 378.75C529.967 389.99 529.922 401.222 529.793 412.532C529.759 415.259 529.714 417.985 529.669 420.711C529.663 421.522 529.658 422.332 529.653 423.167C529.566 428.22 528.866 432.857 527.798 437.792C527.063 441.597 526.863 445.384 526.692 449.25C526.651 450.06 526.609 450.871 526.566 451.706C526.481 453.401 526.398 455.097 526.32 456.792C526.2 459.369 526.07 461.944 525.938 464.52C525.856 466.18 525.774 467.84 525.692 469.5C525.655 470.259 525.617 471.017 525.579 471.799C525.356 476.619 525.293 481.417 525.325 486.242C526.315 486.572 527.305 486.902 528.325 487.242C528.325 487.902 528.325 488.562 528.325 489.242C530.305 489.572 532.285 489.902 534.325 490.242C534.325 490.572 534.325 490.902 534.325 491.242C528.368 491.633 528.368 491.633 526.325 491.242C523.429 488.192 522.957 486.154 523.063 482.008C523.091 480.844 523.119 479.681 523.148 478.482C523.204 477.069 523.263 475.655 523.325 474.242C523.358 473.428 523.391 472.614 523.425 471.776C523.731 464.511 524.117 457.252 524.512 449.992C524.575 448.816 524.638 447.641 524.703 446.429C526.521 412.676 528.936 378.959 531.325 345.242Z"
        fill="#E80000" />
    <path
        d="M430.325 61.2438C441.486 61.1512 452.647 61.0801 463.809 61.0365C468.991 61.0156 474.173 60.9873 479.356 60.942C484.355 60.8986 489.354 60.8747 494.353 60.8643C496.262 60.8569 498.172 60.8424 500.081 60.8209C502.751 60.7919 505.42 60.7878 508.09 60.7897C509.28 60.7681 509.28 60.7681 510.494 60.7461C515.794 60.7861 515.794 60.7861 518.319 62.9626C519.47 65.5713 519.688 67.348 519.666 70.1959C519.666 71.1766 519.665 72.1574 519.665 73.1678C519.65 74.219 519.634 75.2701 519.618 76.3531C519.614 77.4351 519.61 78.517 519.605 79.6318C519.589 83.086 519.551 86.5397 519.513 89.9938C519.498 92.3362 519.484 94.6787 519.472 97.0211C519.439 102.762 519.388 108.503 519.325 114.244C518.665 114.244 518.005 114.244 517.325 114.244C517.325 98.0738 517.325 81.9038 517.325 65.2438C513.262 64.5665 509.764 64.0917 505.716 63.9625C504.03 63.9073 504.03 63.9073 502.31 63.851C501.077 63.8156 499.845 63.7802 498.575 63.7438C497.275 63.7039 495.975 63.664 494.635 63.6229C473.204 62.9867 451.763 62.6401 430.325 62.2438C430.325 61.9138 430.325 61.5838 430.325 61.2438Z"
        fill="#E80000" />
    <path
        d="M587.326 237.242C587.656 237.242 587.986 237.242 588.326 237.242C589.137 243.645 589.501 249.885 589.482 256.336C589.48 257.347 589.478 258.359 589.477 259.401C589.371 275.316 588.602 291.221 587.935 307.121C587.75 311.547 587.572 315.973 587.392 320.398C587.042 329.013 586.686 337.628 586.326 346.242C585.996 346.242 585.666 346.242 585.326 346.242C585.264 337.263 585.223 328.284 585.201 319.305C585.199 318.634 585.197 317.963 585.196 317.272C585.135 290.557 585.944 263.924 587.326 237.242Z"
        fill="#E80000" />
    <path
        d="M292.325 61.2421C302.627 61.1955 312.929 61.1601 323.231 61.1385C328.016 61.1281 332.802 61.114 337.587 61.0912C342.216 61.0693 346.846 61.0575 351.475 61.0523C353.23 61.0487 354.984 61.0415 356.738 61.0306C384.757 60.8635 384.757 60.8635 391.325 65.2421C389.659 65.2697 387.992 65.2887 386.325 65.3046C385.397 65.3162 384.469 65.3278 383.513 65.3397C380.325 65.2421 380.325 65.2421 376.642 64.7488C372.441 64.21 368.304 64.0706 364.073 64.0368C363.292 64.0269 362.51 64.017 361.705 64.0068C359.151 63.9755 356.598 63.9505 354.044 63.9257C352.262 63.9051 350.48 63.8841 348.697 63.8627C344.029 63.8078 339.36 63.7582 334.691 63.7099C329.918 63.6594 325.145 63.6039 320.372 63.5487C311.023 63.4415 301.674 63.34 292.325 63.2421C292.325 62.5821 292.325 61.9221 292.325 61.2421Z"
        fill="#E80000" />
    <path
        d="M431.382 62.123C432.738 62.1264 432.738 62.1264 434.121 62.1298C435.142 62.1299 436.163 62.1299 437.215 62.13C438.325 62.1352 439.435 62.1403 440.579 62.1456C442.275 62.1478 442.275 62.1478 444.006 62.1499C447.633 62.1556 451.261 62.1681 454.888 62.1808C457.341 62.1858 459.793 62.1904 462.246 62.1945C468.272 62.2055 474.299 62.2223 480.326 62.2433C480.326 62.5733 480.326 62.9033 480.326 63.2433C479.714 63.2536 479.102 63.2639 478.472 63.2745C472.13 63.3824 465.788 63.497 459.445 63.6156C457.076 63.659 454.706 63.7007 452.336 63.7406C448.938 63.7981 445.54 63.8619 442.142 63.9269C441.075 63.9436 440.009 63.9603 438.91 63.9775C437.929 63.9975 436.948 64.0174 435.937 64.038C435.069 64.0535 434.201 64.0691 433.306 64.0851C431.325 64.0279 431.325 64.0279 430.326 65.2433C430.217 67.0145 430.179 68.7901 430.167 70.5646C430.158 71.7187 430.148 72.8728 430.138 74.0619C430.132 75.3394 430.126 76.6168 430.12 77.933C430.111 79.2829 430.101 80.6328 430.09 81.9827C430.063 85.6581 430.042 89.3335 430.022 93.009C430 96.8461 429.973 100.683 429.946 104.52C429.896 111.791 429.851 119.062 429.808 126.333C429.759 134.608 429.704 142.884 429.649 151.159C429.535 168.187 429.428 185.215 429.326 202.243C428.996 202.243 428.666 202.243 428.326 202.243C428.302 184.137 428.285 166.031 428.274 147.925C428.269 139.519 428.262 131.112 428.25 122.706C428.24 115.382 428.234 108.057 428.232 100.733C428.23 96.8524 428.227 92.9718 428.22 89.0913C428.213 85.4429 428.211 81.7946 428.212 78.1462C428.212 76.1604 428.207 74.1746 428.201 72.1888C428.203 71.0179 428.204 69.847 428.205 68.6405C428.204 67.1044 428.204 67.1044 428.203 65.5372C428.36 62.5965 428.447 62.2947 431.382 62.123Z"
        fill="#E80000" />
    <path
        d="M515.325 435.242C515.985 435.572 516.645 435.902 517.325 436.242C518.736 442.208 518.473 448.668 518.458 454.766C518.459 456.068 518.459 456.068 518.461 457.396C518.462 459.213 518.46 461.029 518.456 462.846C518.45 465.631 518.456 468.415 518.462 471.199C518.461 472.971 518.46 474.743 518.458 476.516C518.46 477.347 518.462 478.178 518.464 479.035C518.451 482.356 518.383 485.069 517.325 488.242C510.395 488.242 503.465 488.242 496.325 488.242C496.325 487.912 496.325 487.582 496.325 487.242C502.595 487.242 508.865 487.242 515.325 487.242C515.325 470.082 515.325 452.922 515.325 435.242Z"
        fill="#E80000" />
    <path
        d="M486.325 239.242C490.013 239.353 493.7 239.483 497.388 239.617C498.945 239.664 498.945 239.664 500.534 239.711C506.132 239.924 511.027 240.393 516.325 242.242C516.494 246.244 516.654 250.246 516.807 254.248C516.86 255.607 516.916 256.965 516.973 258.324C517.056 260.287 517.13 262.251 517.204 264.215C517.251 265.393 517.298 266.571 517.347 267.785C517.324 271.359 516.909 274.72 516.325 278.242C515.995 278.242 515.665 278.242 515.325 278.242C514.995 266.692 514.665 255.142 514.325 243.242C505.745 243.242 497.165 243.242 488.325 243.242C488.325 242.582 488.325 241.922 488.325 241.242C487.665 241.242 487.005 241.242 486.325 241.242C486.325 240.582 486.325 239.922 486.325 239.242Z"
        fill="#E80000" />
    <path
        d="M289.325 460.242C289.655 460.242 289.985 460.242 290.325 460.242C290.985 468.492 291.645 476.742 292.325 485.242C309.485 485.572 326.645 485.902 344.325 486.242C344.325 486.572 344.325 486.902 344.325 487.242C331.034 487.942 317.76 488.347 304.45 488.367C303.179 488.372 301.908 488.376 300.598 488.381C299.417 488.379 298.237 488.377 297.021 488.375C295.969 488.374 294.917 488.373 293.833 488.372C291.325 488.242 291.325 488.242 289.325 487.242C289.325 478.332 289.325 469.422 289.325 460.242Z"
        fill="#E80000" />
    <path
        d="M658.325 346.242C658.655 346.242 658.985 346.242 659.325 346.242C659.757 353.464 660.183 360.687 660.607 367.91C660.751 370.364 660.897 372.817 661.043 375.271C661.255 378.811 661.462 382.351 661.669 385.891C661.735 386.976 661.8 388.062 661.868 389.181C662.235 395.544 662.409 401.869 662.325 408.242C660.091 404.891 660.087 403.824 660.13 399.918C660.136 398.89 660.143 397.862 660.149 396.803C660.166 395.731 660.183 394.659 660.2 393.555C660.209 392.471 660.218 391.388 660.228 390.271C660.251 387.595 660.284 384.919 660.325 382.242C659.005 381.912 657.685 381.582 656.325 381.242C656.845 369.563 657.404 357.898 658.325 346.242Z"
        fill="#E80000" />
    <path
        d="M484.325 485.243C484.325 485.903 484.325 486.563 484.325 487.243C485.645 487.573 486.965 487.903 488.325 488.243C469.642 488.425 450.996 487.861 432.325 487.243C432.325 486.913 432.325 486.583 432.325 486.243C449.662 485.636 466.975 485.055 484.325 485.243Z"
        fill="#E80000" />
    <path
        d="M659.325 382.242C659.655 382.242 659.985 382.242 660.325 382.242C660.351 382.923 660.376 383.604 660.401 384.306C660.517 387.389 660.64 390.472 660.763 393.555C660.802 394.627 660.842 395.698 660.882 396.803C660.924 397.831 660.966 398.859 661.009 399.918C661.046 400.866 661.082 401.814 661.12 402.79C661.24 405.378 661.24 405.378 662.325 408.242C662.48 411.117 662.583 413.971 662.642 416.848C662.663 417.687 662.683 418.526 662.705 419.391C662.77 422.07 662.829 424.75 662.888 427.43C662.931 429.247 662.975 431.064 663.019 432.881C663.126 437.335 663.227 441.788 663.325 446.242C660.781 443.698 661.042 442.681 660.947 439.148C660.912 438.117 660.878 437.086 660.843 436.023C660.817 434.941 660.79 433.858 660.763 432.742C660.535 424.042 660.535 424.042 659.802 415.375C659.084 408.801 659.219 402.222 659.263 395.617C659.267 394.327 659.272 393.036 659.277 391.707C659.288 388.552 659.305 385.397 659.325 382.242Z"
        fill="#E80000" />
    <path
        d="M493.638 115.056C494.691 115.066 494.691 115.066 495.765 115.076C502.64 115.175 509.476 115.645 516.325 116.244C516.325 116.574 516.325 116.904 516.325 117.244C500.485 117.739 500.485 117.739 484.325 118.244C484.325 128.804 484.325 139.364 484.325 150.244C483.995 150.244 483.665 150.244 483.325 150.244C483.251 145.581 483.197 140.918 483.161 136.255C483.145 134.668 483.125 133.081 483.099 131.494C483.063 129.215 483.046 126.937 483.032 124.658C483.017 123.946 483.001 123.235 482.985 122.502C482.985 120.5 482.985 120.5 483.325 117.244C486.924 114.845 489.488 114.978 493.638 115.056Z"
        fill="#E80000" />
    <path
        d="M651.325 236.242C651.655 236.242 651.985 236.242 652.325 236.242C652.759 242.376 653.186 248.51 653.607 254.644C653.751 256.724 653.896 258.805 654.044 260.885C654.879 272.689 655.579 284.404 655.325 296.242C654.995 296.242 654.665 296.242 654.325 296.242C654.27 295.526 654.215 294.809 654.158 294.071C653.905 290.836 653.647 287.602 653.388 284.367C653.257 282.675 653.257 282.675 653.124 280.949C653.037 279.873 652.95 278.796 652.861 277.688C652.782 276.693 652.703 275.698 652.623 274.672C652.463 272.237 652.463 272.237 651.325 270.242C651.239 267.689 651.21 265.163 651.228 262.609C651.229 261.858 651.231 261.106 651.232 260.331C651.238 257.926 651.25 255.522 651.263 253.117C651.268 251.488 651.272 249.859 651.277 248.23C651.288 244.234 651.305 240.238 651.325 236.242Z"
        fill="#E80000" />
    <path
        d="M525.325 436.242C525.655 436.242 525.985 436.242 526.325 436.242C526.534 452.921 525.902 469.577 525.325 486.242C526.315 486.572 527.305 486.902 528.325 487.242C528.325 487.902 528.325 488.562 528.325 489.242C530.305 489.572 532.285 489.902 534.325 490.242C534.325 490.572 534.325 490.902 534.325 491.242C528.368 491.633 528.368 491.633 526.325 491.242C524.239 489.068 523.386 487.715 522.997 484.704C523.023 483.723 523.049 482.742 523.075 481.73C523.102 480.579 523.129 479.427 523.157 478.241C523.21 476.908 523.266 475.575 523.325 474.242C523.357 473.5 523.388 472.757 523.42 471.993C523.677 466.136 523.997 460.283 524.325 454.43C524.422 452.658 524.518 450.887 524.614 449.115C524.848 444.824 525.085 440.533 525.325 436.242Z"
        fill="#E80000" />
    <path
        d="M602.325 314.242C602.655 314.242 602.985 314.242 603.325 314.242C603.635 319.066 603.938 323.889 604.235 328.714C604.337 330.356 604.44 331.998 604.546 333.64C604.697 335.996 604.842 338.351 604.985 340.707C605.034 341.446 605.083 342.184 605.134 342.945C605.238 344.709 605.287 346.476 605.325 348.242C604.325 349.242 604.325 349.242 600.509 349.34C598.927 349.333 597.345 349.321 595.763 349.305C594.956 349.3 594.15 349.296 593.319 349.291C591.321 349.279 589.323 349.261 587.325 349.242C586.83 347.757 586.83 347.757 586.325 346.242C591.935 346.572 597.545 346.902 603.325 347.242C603.078 344.643 603.078 344.643 602.825 341.992C602.098 332.75 602.242 323.507 602.325 314.242Z"
        fill="#E80000" />
    <path
        d="M655.325 296.242C655.655 296.242 655.985 296.242 656.325 296.242C656.615 300.74 656.899 305.238 657.18 309.737C657.276 311.263 657.373 312.788 657.471 314.313C658.028 322.966 658.495 331.566 658.325 340.242C655.396 337.313 655.332 335.453 655.212 331.322C655.212 329.687 655.218 328.052 655.228 326.418C655.23 325.126 655.23 325.126 655.232 323.808C655.238 321.057 655.25 318.306 655.263 315.555C655.268 313.689 655.273 311.824 655.277 309.959C655.288 305.387 655.305 300.814 655.325 296.242Z"
        fill="#E80000" />
    <path
        d="M541.325 180.242C544.14 183.057 543.625 184.787 543.638 188.742C543.615 200.638 541.846 212.465 540.325 224.242C539.995 224.242 539.665 224.242 539.325 224.242C539.83 209.565 540.354 194.897 541.325 180.242Z"
        fill="#E80000" />
    <path
        d="M634.325 501.242C645.484 500.923 655.546 500.99 666.325 504.242C665.995 504.902 665.665 505.562 665.325 506.242C654.909 505.549 644.63 503.851 634.325 502.242C634.325 501.912 634.325 501.582 634.325 501.242Z"
        fill="#E80000" />
    <path
        d="M677.325 507.242C679.638 507.215 681.95 507.196 684.263 507.18C685.55 507.168 686.838 507.156 688.165 507.145C691.325 507.242 691.325 507.242 692.325 508.242C694.508 508.477 696.697 508.656 698.888 508.805C700.085 508.888 701.283 508.972 702.517 509.059C703.443 509.119 704.37 509.18 705.325 509.242C705.325 509.902 705.325 510.562 705.325 511.242C707.635 511.572 709.945 511.902 712.325 512.242C712.325 512.572 712.325 512.902 712.325 513.242C707.564 513.348 703.197 513.011 698.517 512.148C697.276 511.923 696.035 511.697 694.757 511.465C693.48 511.226 692.203 510.988 690.888 510.742C689.571 510.501 688.254 510.26 686.937 510.02C683.732 509.433 680.528 508.84 677.325 508.242C677.325 507.912 677.325 507.582 677.325 507.242Z"
        fill="#E80000" />
    <path
        d="M648.325 196.242C648.655 196.242 648.985 196.242 649.325 196.242C649.665 200.679 649.996 205.117 650.325 209.555C650.42 210.798 650.516 212.041 650.614 213.322C651.152 220.646 651.462 227.899 651.325 235.242C650.995 235.242 650.665 235.242 650.325 235.242C650.192 234.171 650.059 233.1 649.923 231.996C649.744 230.599 649.566 229.202 649.387 227.805C649.3 227.098 649.213 226.391 649.124 225.662C648.943 222.154 648.943 222.154 647.325 219.242C646.93 211.54 647.359 203.885 648.325 196.242Z"
        fill="#E80000" />
    <path
        d="M645.325 148.242C645.655 148.242 645.985 148.242 646.325 148.242C646.614 152.492 646.899 156.742 647.18 160.992C647.276 162.435 647.373 163.877 647.471 165.319C647.991 172.967 648.463 180.571 648.325 188.242C645.502 182.972 645.204 178.843 645.228 172.852C645.229 172.147 645.231 171.442 645.232 170.716C645.238 168.475 645.25 166.234 645.263 163.992C645.268 162.469 645.273 160.945 645.277 159.422C645.288 155.695 645.305 151.969 645.325 148.242Z"
        fill="#E80000" />
    <path
        d="M609.325 482.242C609.655 482.242 609.985 482.242 610.325 482.242C610.655 486.532 610.985 490.822 611.325 495.242C614.645 495.698 617.966 496.154 621.286 496.609C624.325 497.242 624.325 497.242 626.325 499.242C622.826 500.992 619.055 500.768 615.344 499.641C610.544 497.681 610.544 497.681 609.325 495.242C609.254 493.035 609.241 490.826 609.262 488.617C609.271 487.429 609.28 486.24 609.29 485.016C609.301 484.1 609.313 483.185 609.325 482.242Z"
        fill="#E80000" />
    <path
        d="M583.325 403.242C589.595 403.242 595.865 403.242 602.325 403.242C600.325 405.242 600.325 405.242 597.067 405.438C595.791 405.414 594.515 405.391 593.2 405.367C591.278 405.34 591.278 405.34 589.317 405.312C587.836 405.278 587.836 405.278 586.325 405.242C585.294 410.527 585.009 415.753 584.763 421.117C584.72 421.996 584.676 422.875 584.632 423.781C584.527 425.935 584.425 428.088 584.325 430.242C583.995 430.242 583.665 430.242 583.325 430.242C583.325 421.332 583.325 412.422 583.325 403.242Z"
        fill="#E80000" />
    <path
        d="M387.173 299.145C389.224 299.177 391.274 299.21 393.325 299.242C385.943 303.549 378.563 303.435 370.325 302.867C369.36 302.81 368.394 302.754 367.399 302.695C365.04 302.555 362.683 302.404 360.325 302.242C360.325 301.912 360.325 301.582 360.325 301.242C361.047 301.217 361.769 301.192 362.512 301.166C365.763 301.051 369.013 300.928 372.263 300.805C373.399 300.765 374.535 300.726 375.706 300.686C377.325 300.623 377.325 300.623 378.978 300.559C379.978 300.522 380.978 300.485 382.009 300.448C384.522 300.225 384.795 299.27 387.173 299.145Z"
        fill="#E80000" />
    <path
        d="M645.325 180.242C647.543 184.383 648.456 187.875 648.423 192.57C648.418 193.769 648.418 193.769 648.413 194.992C648.405 195.817 648.396 196.642 648.388 197.492C648.383 198.333 648.379 199.173 648.374 200.039C648.362 202.107 648.344 204.175 648.325 206.242C647.995 206.242 647.665 206.242 647.325 206.242C645.877 197.503 645.033 189.103 645.325 180.242Z"
        fill="#E80000" />
    <path
        d="M413.325 274.242C413.985 274.572 414.645 274.902 415.325 275.242C414.014 279.704 412.255 283.238 409.7 287.117C408.753 288.567 408.753 288.567 407.786 290.047C407.304 290.771 406.822 291.496 406.325 292.242C405.665 291.912 405.005 291.582 404.325 291.242C404.575 288.867 404.575 288.867 405.325 286.242C405.985 285.933 406.645 285.623 407.325 285.305C407.985 284.954 408.645 284.603 409.325 284.242C409.715 282.252 410.044 280.25 410.325 278.242C411.888 275.867 411.888 275.867 413.325 274.242Z"
        fill="#E80000" />
    <path
        d="M543.325 150.242C543.655 150.242 543.985 150.242 544.325 150.242C544.655 158.162 544.985 166.082 545.325 174.242C544.335 174.242 543.345 174.242 542.325 174.242C542.159 166.2 542.679 158.256 543.325 150.242Z"
        fill="#E80000" />
    <path
        d="M346.325 111.244C348.763 111.163 351.199 111.103 353.638 111.056C354.673 111.018 354.673 111.018 355.729 110.98C360.882 110.905 360.882 110.905 363.306 112.755C363.642 113.246 363.979 113.738 364.325 114.244C363.335 115.729 363.335 115.729 362.325 117.244C362.325 116.254 362.325 115.264 362.325 114.244C357.045 114.244 351.765 114.244 346.325 114.244C346.325 113.254 346.325 112.264 346.325 111.244Z"
        fill="#E80000" />
    <path
        d="M759.325 515.242C759.655 515.242 759.985 515.242 760.325 515.242C760.655 517.552 760.985 519.862 761.325 522.242C757.947 523.087 755.651 523.351 752.325 522.242C752.325 521.582 752.325 520.922 752.325 520.242C751.665 519.912 751.005 519.582 750.325 519.242C750.891 519.121 751.457 519 752.04 518.875C753.14 518.624 753.14 518.624 754.263 518.367C754.994 518.205 755.724 518.042 756.478 517.875C758.532 517.413 758.532 517.413 759.325 515.242Z"
        fill="#E80000" />
    <path
        d="M372.325 62.243C379.053 62.0204 384.865 62.2928 391.325 64.243C391.325 64.573 391.325 64.903 391.325 65.243C384.884 65.3495 378.699 65.205 372.325 64.243C372.325 63.583 372.325 62.923 372.325 62.243Z"
        fill="#E80000" />
    <path
        d="M696.325 509.242C699.295 509.242 702.265 509.242 705.325 509.242C705.325 509.902 705.325 510.562 705.325 511.242C707.635 511.572 709.945 511.902 712.325 512.242C712.325 512.572 712.325 512.902 712.325 513.242C706.395 513.621 701.853 512.348 696.325 510.242C696.325 509.912 696.325 509.582 696.325 509.242Z"
        fill="#E80000" />
    <path
        d="M402.325 71.2422C403.477 72.1718 404.622 73.1112 405.763 74.0547C406.401 74.5768 407.039 75.0988 407.696 75.6367C409.325 77.2422 409.325 77.2422 410.325 80.2422C408.345 80.2422 406.365 80.2422 404.325 80.2422C404.325 78.9222 404.325 77.6022 404.325 76.2422C403.712 74.5552 403.054 72.8825 402.325 71.2422Z"
        fill="#E80000" />
    <path
        d="M391.325 65.2422C395.84 65.7733 398.672 67.6084 402.325 70.2422C400.763 70.9922 400.763 70.9922 398.325 71.2422C395.822 70.1113 393.655 68.7208 391.325 67.2422C391.325 66.5822 391.325 65.9222 391.325 65.2422Z"
        fill="#E80000" />
    <path
        d="M161.462 126.983C162.292 126.98 163.121 126.976 163.976 126.973C166.727 126.964 169.477 126.97 172.228 126.977C174.145 126.975 176.063 126.973 177.98 126.971C182.008 126.968 186.035 126.972 190.063 126.981C195.197 126.993 200.331 126.986 205.465 126.974C209.431 126.967 213.398 126.969 217.364 126.975C219.255 126.976 221.145 126.974 223.036 126.97C249.054 126.919 249.054 126.919 258.763 132.117C260.184 132.856 260.184 132.856 261.634 133.609C270.515 138.997 275.755 147.128 278.818 156.977C280.241 163.329 280.478 169.521 280.487 175.994C280.491 176.948 280.496 177.902 280.502 178.885C280.516 182.026 280.523 185.167 280.529 188.309C280.533 189.928 280.533 189.928 280.537 191.579C280.552 197.295 280.561 203.01 280.566 208.726C280.571 214.597 280.595 220.468 280.624 226.34C280.642 230.883 280.647 235.425 280.649 239.968C280.652 242.131 280.66 244.294 280.673 246.456C280.78 265.22 280.047 284.048 266.638 298.742C253.954 310.111 238.001 311.237 221.825 312.32C219.876 312.455 219.876 312.455 217.888 312.592C214.701 312.812 211.513 313.028 208.325 313.242C208.329 314.151 208.333 315.059 208.337 315.995C208.425 338.086 208.491 360.177 208.533 382.269C208.553 392.952 208.581 403.635 208.627 414.318C208.667 423.628 208.693 432.937 208.702 442.247C208.707 447.178 208.719 452.109 208.748 457.04C208.775 461.679 208.784 466.317 208.778 470.957C208.779 472.661 208.787 474.365 208.802 476.07C208.822 478.394 208.817 480.717 208.806 483.042C208.81 484.343 208.814 485.645 208.818 486.986C208.325 490.242 208.325 490.242 206.504 492.642C203.422 494.906 200.818 495.066 197.032 495.473C196.327 495.553 195.621 495.634 194.895 495.717C192.644 495.971 190.391 496.201 188.138 496.43C186.642 496.594 185.147 496.76 183.652 496.928C180.793 497.246 177.933 497.553 175.072 497.849C172.106 498.16 169.146 498.497 166.185 498.852C162.676 499.207 159.287 499.345 155.763 499.305C154.73 499.296 153.698 499.287 152.634 499.277C151.491 499.26 151.491 499.26 150.325 499.242C149.029 496.649 149.2 494.781 149.2 491.875C149.197 490.728 149.194 489.582 149.192 488.401C149.195 486.495 149.195 486.495 149.198 484.55C149.197 483.195 149.196 481.84 149.194 480.485C149.189 476.747 149.192 473.009 149.195 469.271C149.197 465.243 149.193 461.215 149.191 457.187C149.186 449.282 149.187 441.377 149.19 433.471C149.192 427.03 149.193 420.589 149.192 414.147C149.191 413.231 149.191 412.314 149.191 411.369C149.191 409.506 149.19 407.643 149.19 405.78C149.187 388.274 149.191 370.768 149.196 353.262C149.2 338.307 149.2 323.352 149.195 308.397C149.19 291.004 149.188 273.61 149.191 256.217C149.191 254.351 149.191 252.485 149.192 250.619C149.192 249.701 149.192 248.783 149.192 247.838C149.193 241.435 149.191 235.033 149.189 228.631C149.186 220.781 149.187 212.931 149.192 205.081C149.195 201.091 149.196 197.102 149.193 193.112C149.181 177.576 149.253 162.041 149.598 146.51C149.63 144.989 149.657 143.468 149.679 141.947C149.711 139.852 149.762 137.757 149.818 135.662C149.844 134.468 149.869 133.274 149.895 132.043C150.108 130.657 150.108 130.657 150.325 129.242C154.102 126.724 157.088 126.961 161.462 126.983ZM209.325 177.242C207.597 178.971 208.199 181.191 208.19 183.496C208.192 184.248 208.194 185 208.196 185.775C208.194 186.564 208.192 187.352 208.191 188.165C208.186 190.784 208.189 193.404 208.193 196.023C208.192 197.836 208.191 199.648 208.19 201.46C208.188 205.263 208.19 209.066 208.195 212.87C208.201 217.756 208.197 222.642 208.191 227.529C208.188 231.272 208.189 235.016 208.192 238.759C208.192 240.562 208.191 242.364 208.189 244.166C208.187 246.68 208.19 249.195 208.196 251.709C208.194 252.461 208.192 253.213 208.19 253.988C207.898 257.403 207.898 257.403 209.325 260.242C211.113 260.394 212.907 260.464 214.7 260.492C215.678 260.518 216.655 260.544 217.661 260.57C220.273 260.445 220.273 260.445 221.969 259.182C224.013 256.259 223.735 253.32 223.698 249.881C223.703 248.761 223.703 248.761 223.709 247.618C223.717 245.149 223.703 242.68 223.689 240.211C223.688 238.496 223.689 236.781 223.69 235.066C223.69 231.472 223.68 227.877 223.662 224.283C223.639 219.672 223.638 215.062 223.645 210.452C223.648 206.91 223.642 203.369 223.632 199.828C223.628 198.128 223.627 196.428 223.629 194.728C223.629 192.353 223.616 189.978 223.6 187.603C223.603 186.899 223.605 186.194 223.608 185.469C223.568 181.832 223.403 180.358 221.325 177.242C217.189 175.824 213.559 176.428 209.325 177.242Z"
        fill="#E80000" />
    <path
        d="M150.325 129.242C151.315 129.242 152.305 129.242 153.325 129.242C153.313 130.306 153.301 131.37 153.288 132.466C152.622 190.086 152.225 247.701 152.228 305.324C152.228 306.027 152.228 306.73 152.228 307.455C152.229 325.304 152.239 343.153 152.253 361.002C152.261 371.335 152.267 381.667 152.27 392C152.271 393.113 152.271 393.113 152.271 394.249C152.273 397.976 152.274 401.704 152.275 405.431C152.285 435.701 152.303 465.972 152.325 496.242C158.595 496.572 164.865 496.902 171.325 497.242C171.325 497.572 171.325 497.902 171.325 498.242C164.286 499.181 157.423 499.35 150.325 499.242C149.029 496.649 149.2 494.781 149.2 491.875C149.197 490.728 149.194 489.582 149.192 488.401C149.195 486.495 149.195 486.495 149.198 484.55C149.197 483.195 149.196 481.84 149.194 480.485C149.189 476.747 149.192 473.009 149.195 469.271C149.197 465.243 149.193 461.215 149.191 457.187C149.186 449.282 149.187 441.377 149.19 433.471C149.192 427.03 149.193 420.589 149.192 414.147C149.191 413.231 149.191 412.314 149.191 411.369C149.191 409.506 149.19 407.643 149.19 405.78C149.187 388.274 149.191 370.768 149.196 353.262C149.2 338.307 149.2 323.352 149.195 308.397C149.19 291.004 149.188 273.61 149.191 256.217C149.191 254.351 149.191 252.485 149.192 250.619C149.192 249.701 149.192 248.783 149.192 247.838C149.193 241.435 149.191 235.033 149.189 228.631C149.186 220.781 149.187 212.931 149.192 205.081C149.195 201.091 149.196 197.102 149.193 193.112C149.176 171.804 149.583 150.537 150.325 129.242Z"
        fill="#E80000" />
    <path
        d="M149.325 194.242C149.655 194.242 149.985 194.242 150.325 194.242C150.325 293.902 150.325 393.562 150.325 496.242C157.255 496.572 164.185 496.902 171.325 497.242C171.325 497.572 171.325 497.902 171.325 498.242C164.286 499.181 157.423 499.35 150.325 499.242C149.075 496.741 149.201 495.064 149.202 492.264C149.2 491.205 149.198 490.145 149.196 489.054C149.199 487.88 149.202 486.707 149.205 485.499C149.204 484.26 149.203 483.021 149.203 481.744C149.201 478.294 149.204 474.844 149.209 471.394C149.214 467.677 149.212 463.961 149.211 460.244C149.211 453.802 149.214 447.359 149.22 440.916C149.228 431.601 149.23 422.286 149.232 412.971C149.234 397.859 149.24 382.748 149.25 367.636C149.259 352.953 149.266 338.271 149.27 323.588C149.271 322.683 149.271 321.779 149.271 320.847C149.273 316.309 149.274 311.772 149.275 307.234C149.285 269.57 149.303 231.906 149.325 194.242Z"
        fill="#E80000" />
    <path
        d="M150.325 129.242C151.315 129.242 152.305 129.242 153.325 129.242C152.995 165.212 152.665 201.182 152.325 238.242C151.995 238.242 151.665 238.242 151.325 238.242C150.588 221.954 150.031 205.669 149.7 189.367C149.678 188.274 149.655 187.182 149.631 186.056C149.25 167.085 149.443 148.195 150.325 129.242Z"
        fill="#E80000" />
    <path
        d="M207.325 175.242C209.283 175.188 211.242 175.149 213.2 175.117C214.836 175.082 214.836 175.082 216.505 175.047C219.325 175.242 219.325 175.242 221.325 177.242C215.385 177.737 215.385 177.737 209.325 178.242C208.995 204.972 208.665 231.702 208.325 259.242C207.665 258.912 207.005 258.582 206.325 258.242C205.995 231.512 205.665 204.782 205.325 177.242C205.985 177.242 206.645 177.242 207.325 177.242C207.325 176.582 207.325 175.922 207.325 175.242Z"
        fill="#E80000" />
    <path
        d="M223.325 178.242C223.985 178.242 224.645 178.242 225.325 178.242C225.325 204.642 225.325 231.042 225.325 258.242C222.85 259.232 222.85 259.232 220.325 260.242C220.985 259.252 221.645 258.262 222.325 257.242C222.538 254.677 222.636 252.217 222.644 249.65C222.654 248.879 222.664 248.108 222.674 247.313C222.705 244.765 222.722 242.217 222.739 239.668C222.758 237.901 222.778 236.134 222.798 234.367C222.849 229.716 222.889 225.066 222.926 220.415C222.966 215.669 223.017 210.923 223.067 206.178C223.164 196.866 223.249 187.554 223.325 178.242Z"
        fill="#E80000" />
    <path
        d="M149.326 440.242C149.656 440.242 149.986 440.242 150.326 440.242C150.326 458.722 150.325 477.202 150.325 496.242C157.255 496.572 164.185 496.902 171.325 497.242C171.325 497.572 171.325 497.902 171.325 498.242C164.286 499.181 157.423 499.35 150.325 499.242C149.018 496.627 149.206 494.711 149.212 491.783C149.212 490.642 149.212 489.501 149.212 488.325C149.217 487.089 149.223 485.852 149.228 484.578C149.229 483.316 149.231 482.053 149.232 480.753C149.237 477.396 149.246 474.039 149.257 470.682C149.267 467.257 149.272 463.831 149.277 460.406C149.288 453.685 149.305 446.964 149.326 440.242Z"
        fill="#E80000" />
    <path
        d="M150.325 129.242C151.315 129.242 152.305 129.242 153.325 129.242C152.995 137.822 152.665 146.402 152.325 155.242C151.665 155.242 151.005 155.242 150.325 155.242C150.325 146.662 150.325 138.082 150.325 129.242Z"
        fill="#E80000" />
    <path
        d="M207.325 175.242C209.283 175.188 211.242 175.149 213.2 175.117C214.836 175.082 214.836 175.082 216.505 175.047C219.325 175.242 219.325 175.242 221.325 177.242C216.705 177.572 212.085 177.902 207.325 178.242C206.995 182.862 206.665 187.482 206.325 192.242C205.995 192.242 205.665 192.242 205.325 192.242C205.325 187.292 205.325 182.342 205.325 177.242C205.985 177.242 206.645 177.242 207.325 177.242C207.325 176.582 207.325 175.922 207.325 175.242Z"
        fill="#E80000" />
    <path
        d="M150.325 496.242C157.255 496.572 164.185 496.902 171.325 497.242C171.325 497.572 171.325 497.902 171.325 498.242C164.286 499.181 157.423 499.35 150.325 499.242C150.325 498.252 150.325 497.262 150.325 496.242Z"
        fill="#E80000" />
    <path
        d="M259.325 133.242C263.32 134.612 266.125 136.499 269.325 139.242C268.995 139.902 268.665 140.562 268.325 141.242C267.005 140.582 265.685 139.922 264.325 139.242C264.325 138.582 264.325 137.922 264.325 137.242C263.686 137.139 263.046 137.036 262.388 136.93C261.707 136.703 261.026 136.476 260.325 136.242C259.995 135.252 259.665 134.262 259.325 133.242Z"
        fill="#E80000" />
    <path
        d="M269.325 142.242C272.325 143.242 272.325 143.242 274.075 145.68C274.694 146.948 274.694 146.948 275.325 148.242C274.995 148.902 274.665 149.562 274.325 150.242C271.325 148.242 271.325 148.242 269.325 146.242C269.325 144.922 269.325 143.602 269.325 142.242Z"
        fill="#E80000" />
    <path
        d="M524.325 486.242C525.645 486.572 526.965 486.902 528.325 487.242C528.325 487.902 528.325 488.562 528.325 489.242C531.295 489.737 531.295 489.737 534.325 490.242C534.325 490.572 534.325 490.902 534.325 491.242C528.271 491.438 528.271 491.438 526.325 491.242C525.665 490.582 525.005 489.922 524.325 489.242C524.325 488.252 524.325 487.262 524.325 486.242Z"
        fill="#E80000" />
    <path
        d="M676.325 493.242C676.655 493.242 676.985 493.242 677.325 493.242C677.325 497.202 677.325 501.162 677.325 505.242C678.315 505.572 679.305 505.902 680.325 506.242C679.005 506.572 677.685 506.902 676.325 507.242C674.907 504.407 675.462 502.251 675.762 499.117C675.864 498.021 675.966 496.926 676.071 495.797C676.155 494.954 676.239 494.111 676.325 493.242Z"
        fill="#E80000" />
    <path
        d="M393.325 299.243C389.791 301.363 386.381 301.775 382.325 302.243C385.108 298.069 388.791 299.02 393.325 299.243Z"
        fill="#E80000" />
    <path fill-rule="evenodd" clip-rule="evenodd"
        d="M110.412 126.848C115.777 126.899 115.777 126.899 118.305 128.489C119.559 130.648 119.809 132.18 119.983 134.672C120.088 136.034 120.087 136.034 120.194 137.424C120.256 138.422 120.319 139.421 120.383 140.45C120.499 142.046 120.499 142.046 120.617 143.675C120.868 147.197 121.098 150.72 121.325 154.243C121.484 156.603 121.642 158.963 121.801 161.322C122.198 167.272 122.58 173.223 122.958 179.174C124.661 206.009 126.49 232.835 128.442 259.653C128.535 260.937 128.629 262.221 128.725 263.544C129.207 270.166 129.689 276.788 130.173 283.41C133.037 322.678 135.783 361.949 138.242 401.242H138.325C138.36 401.842 138.396 402.442 138.432 403.06C138.804 409.355 139.177 415.65 139.551 421.945C139.691 424.288 139.829 426.631 139.967 428.975C140.167 432.361 140.369 435.747 140.571 439.133C140.631 440.165 140.692 441.197 140.755 442.26C140.76 442.351 140.766 442.441 140.771 442.532C140.927 444.947 141.085 447.361 141.25 449.775C141.51 453.411 141.798 457.045 142.116 460.679C142.255 462.387 142.354 464.09 142.42 465.795C142.762 470.273 143.113 474.751 143.479 479.228C143.606 480.85 143.732 482.472 143.858 484.094C143.952 485.181 143.952 485.181 144.048 486.29C144.386 490.762 144.248 494.849 143.325 499.243C142.963 499.605 142.633 499.911 142.325 500.175V500.242C142.295 500.245 142.266 500.247 142.236 500.25C140.614 501.61 139.52 501.755 136.936 502.182C134.397 502.952 131.747 503.281 129.012 503.681C128.192 503.805 127.371 503.929 126.525 504.057C123.793 504.464 121.059 504.856 118.325 505.243L115.314 505.671C112.256 506.1 109.197 506.518 106.137 506.931C104.705 507.128 104.705 507.128 103.244 507.329C101.911 507.504 100.591 507.655 99.277 507.783C96.7076 508.069 94.181 508.205 91.6237 508.248C91.3694 508.254 91.1149 508.257 90.86 508.261C90.8528 508.261 90.8457 508.262 90.8385 508.262C90.0085 508.273 89.1748 508.274 88.3356 508.263L87.3249 508.243C86.3695 506.742 85.7915 505.233 85.4303 503.685C84.8694 502.382 84.9314 501.059 84.8219 498.809C84.762 497.669 84.702 496.53 84.6403 495.355C84.585 494.113 84.5303 492.87 84.4733 491.59C84.4095 490.306 84.3456 489.022 84.2799 487.699C84.1448 484.966 84.0162 482.233 83.8922 479.5C83.7359 476.055 83.5669 472.61 83.3942 469.166C83.1425 464.128 82.9106 459.095 82.7233 454.062C82.698 453.537 82.6744 453.011 82.6491 452.485C82.1977 443.072 81.7577 433.658 81.3249 424.243C79.5775 424.231 77.83 424.223 76.0827 424.216C75.1096 424.211 74.136 424.205 73.1334 424.2C67.3181 424.049 67.3172 424.048 62.3239 426.242C62.3221 426.253 62.3208 426.264 62.319 426.274C61.7549 430.389 61.41 434.497 61.1657 438.619C60.9695 442.467 60.8772 446.322 60.7555 450.178C60.6754 452.683 60.5889 455.188 60.5006 457.693C60.2499 464.809 60.0019 471.924 59.778 479.04C59.6401 483.408 59.4879 487.776 59.3268 492.144C59.2682 493.804 59.2147 495.465 59.1667 497.126C59.0992 499.441 59.0139 501.754 58.9245 504.068C58.8808 505.385 58.8376 506.701 58.7926 508.058C58.3247 511.243 58.3248 511.243 57.0514 513.124C55.034 514.431 53.4691 514.888 51.1042 515.318C49.8316 515.558 49.8311 515.558 48.5329 515.803C47.6173 515.962 46.7017 516.122 45.7584 516.286C44.3355 516.546 44.3352 516.546 42.8834 516.812C40.8731 517.176 38.8617 517.535 36.8493 517.888C33.7959 518.425 30.7468 518.984 27.6979 519.546C25.7392 519.898 23.7801 520.249 21.8209 520.599C20.9196 520.764 20.0182 520.93 19.0895 521.101C13.1795 522.122 7.32651 522.73 1.32485 522.243C-0.640303 520.278 0.16675 516.632 0.151026 513.999C0.153066 512.945 0.154784 511.891 0.156886 510.806C0.158723 509.694 0.160851 508.582 0.162745 507.437C0.25987 493.14 1.07433 478.878 1.87954 464.608C2.01465 462.201 2.14725 459.794 2.27896 457.387C3.63929 432.525 5.09803 407.668 6.63345 382.816C6.82054 378.712 7.06658 374.607 7.32485 370.492C7.42154 368.909 7.5179 367.326 7.61392 365.742C7.84711 361.909 8.08472 358.075 8.32485 354.242H8.43423C8.68051 350.397 8.92593 346.551 9.17544 342.706C8.98774 332.132 9.11795 329.389 10.1588 326.743C10.1727 326.542 10.1859 326.341 10.1999 326.141C10.2898 324.81 10.38 323.478 10.4694 322.147C10.7031 318.679 10.9407 315.21 11.1793 311.742C11.4231 308.189 11.6627 304.635 11.903 301.082C12.2467 296.004 12.5944 290.927 12.942 285.85C13.2902 280.525 13.6338 275.201 13.9723 269.876C14.3466 263.915 14.7139 257.954 15.0749 251.992C15.1395 250.926 15.2045 249.859 15.2711 248.76C15.6248 242.921 15.9759 237.082 16.3249 231.242H16.3893C16.4284 230.617 16.4674 229.991 16.5065 229.365C16.594 227.964 16.6807 226.562 16.7682 225.16C16.8125 224.451 16.8574 223.743 16.903 223.013C17.1473 219.098 17.3908 215.184 17.6334 211.27C17.6871 210.405 17.7409 209.54 17.7946 208.676C17.8933 206.928 18.0028 205.179 18.1208 203.429C18.5618 196.348 19.0052 189.267 19.4547 182.188C19.7285 177.873 20.0008 173.559 20.2663 169.244C20.5156 165.191 20.7712 161.139 21.0319 157.087C21.1267 155.596 21.2193 154.105 21.3092 152.613C22.1674 138.427 22.3849 134.819 23.2135 132.1C23.25 131.814 23.2871 131.528 23.3249 131.242H23.5065C23.7341 130.626 24.0001 130 24.3249 129.243C27.8867 126.376 32.46 126.955 36.8092 126.969C37.6632 126.964 38.5173 126.958 39.3971 126.953C42.218 126.939 45.0391 126.94 47.86 126.942C49.82 126.938 51.7799 126.934 53.7399 126.93C57.8463 126.922 61.9528 126.922 66.0592 126.928C71.3276 126.934 76.5956 126.917 81.8639 126.894C85.9104 126.879 89.9571 126.878 94.0036 126.881C95.9465 126.88 97.8898 126.875 99.8327 126.865C102.545 126.853 105.257 126.859 107.969 126.871C108.775 126.863 109.582 126.856 110.412 126.848ZM71.5163 183.639C71.1913 185.706 71.0888 187.726 71.0084 189.883L70.8815 193.125L70.7624 196.492L70.6315 199.906C70.5255 202.685 70.4235 205.463 70.3249 208.242H70.3092C70.2938 208.659 70.2778 209.076 70.2624 209.492C70.1709 211.883 70.0791 214.273 69.987 216.664C69.7619 222.523 69.5415 228.383 69.3249 234.242H68.3249C68.3181 232.736 68.313 231.23 68.3073 229.724C68.2516 231.072 68.1948 232.42 68.1393 233.768C67.8401 241.036 67.5345 248.303 67.2291 255.571C66.9035 263.327 66.5786 271.083 66.2584 278.839C66.2116 279.973 66.1629 281.108 66.1159 282.242H66.3249C66.5454 294.177 66.6329 298.979 66.1627 302.839C65.9788 310.533 65.6781 318.224 65.3249 325.93C65.2281 328.107 65.1318 330.285 65.0358 332.463C64.8032 337.723 64.5659 342.983 64.3249 348.242H63.3668C63.2801 351.821 63.223 355.4 63.2096 358.983C63.2044 359.801 63.1994 360.619 63.194 361.462C62.8486 365.154 62.8486 365.154 64.3249 368.243C66.4733 368.179 68.62 368.042 70.7624 367.868L74.3209 367.595C74.4396 367.588 74.5534 367.58 74.6627 367.573C76.1995 367.134 77.7469 366.693 79.3249 366.242L78.6784 354.544C77.6414 335.375 77.5771 330.483 78.4811 322.227C78.3619 319.259 78.2391 316.29 78.1129 313.321C77.976 310.084 77.8425 306.846 77.7086 303.608C77.3516 294.981 76.9811 286.354 76.6012 277.729C76.5114 277.899 76.4203 278.07 76.3249 278.242C76.2391 272.838 76.2306 272.181 76.2956 270.849C75.6071 255.438 74.8888 240.029 74.1481 224.62C74.0905 223.421 74.0327 222.221 73.9733 220.985L73.8043 217.472C73.2604 206.064 72.7825 194.654 72.3249 183.243H71.5846C71.5615 183.375 71.5375 183.507 71.5163 183.639Z"
        fill="#E80000" />
</svg>